<svg version="1" xmlns="http://www.w3.org/2000/svg" width="848" height="848" viewBox="0 0 636.000000 636.000000"><path d="M19 102.9c0 101.8.5 124.9 3.6 153.1 10.3 95.8 42.7 178.4 95.8 244.7 48.7 60.7 124.2 113.1 191.1 132.7l9 2.6 11-3.4c56.3-17.1 107.6-48.3 154.4-94.1C562.2 462 602.2 373.4 613.5 251c3.2-35.7 3.7-53 4.2-150.8L618.2 0H19v102.9zm464 20.8c0 .7-10.6 55.3-11.5 59l-.5 2.3h-70c-38.5 0-70 .1-70 .2 0 .2-2.5 12.9-5.5 28.3s-5.5 28.6-5.5 29.2c0 1 13.8 1.3 65.5 1.3 53 0 65.5.2 65.5 1.3 0 .7-2.7 14.8-6 31.2s-6 30-6 30.2c0 .2-29.7.3-66 .3s-66 .3-66 .6c0 .8-12.7 66.9-13.5 70.1l-.5 2.3h72c67.9 0 72 .1 72 1.7 0 2.6-10.9 59.3-11.5 60.4-.7 1.1-226.2 1.3-226.8.1-.3-.4 1.1-8.6 3-18.2 3.2-16.3 14.7-75.2 46-235.8l12.7-65.2h111.3c61.2 0 111.3.3 111.3.7z"/></svg>