<svg xmlns="http://www.w3.org/2000/svg" viewBox="0 0 150.05 159.47"><title>Asset 1</title><g id="Layer_2" data-name="Layer 2"><g id="Layer_1-2" data-name="Layer 1"><path d="M75,0H0C0,16.39,0,32.78,0,49.17c.19,33.15,10.89,65.64,36,88.17C47,147.12,60.61,155.75,75,159.47c25.76-6.73,48.51-26.9,61-50,13.57-25.06,14.06-52.32,14.06-80V0ZM44.33,18.63a3.35,3.35,0,0,0-.18.38A2.22,2.22,0,0,1,44.33,18.63Zm12.39,63c-2.88,2-2.6,8.55-6,9.15-2.31.41-2.55-3.1-5-.65-1.3,1.29-.13,4.2-1.92,5.12-3.54,1.83-3.47-4.65-6.69.78-.85,1.43.3,3.44-2.53,3.42-1.94,0-2.43-1.63-1.12-3h0c4-3.15-1.43-3.56-1.29-6.44s4.85-2.41,5.74-4.21c1.33-2.67-.8-1.86-2.5-3.25l-.67-1.15c-.12-2.51-2.59-2.18-2.5.14,1.07,1.33-2.47,3.44-3.44,3.51-1-1.07-1.14-2.31-1.43-3.74l-.95-.92-1.26.43a5.41,5.41,0,0,1-3.37,2.61l-1.16-.37c-2.12-1.48,1.34-4.53,2.57-5l.78-1L23.46,76c-.62-.44-.7-.76-.7-.9l.38-.56c1.73-1.21,5.36.15,7.1.05,3.48-4.71-5-4.6-7-6.64-4.2-4.31.42-2,1.39-4.78,1.07-3.13-5.54-2.36-6.89-4.72-2.55-4.45,3.47-2.75,4-5L21.21,52c-1.65-1-4-3.86-1-5.12,3.74-1.59,1.67,4.28,3.32,5a9.72,9.72,0,0,0,2.8-.83c1.1.45,3.11.56,3-1.13L29,49.7c.47-2,4.07-.61,4.23-2.63.15-1.81-1.68-1.24-2.37-2.14s-5.85-6-.74-6.22v0c4.58-.11-3.38-9.37,2.14-9.71a4.21,4.21,0,0,0-.24-2.39H32a2.12,2.12,0,0,1-.58-1.08h0c0-1.43.4-1.6,1.51-2,2.78-1.06,2.9,3.92,3.51-1.39.18-1.57-2-4.58.68-5.74,2-.87,2.89,1.42,2.48,3.08l.6,1.27,1.4-.07a14.13,14.13,0,0,1,2.07-1.39h.17l.25.1c-.07.2-.14.41-.2.64,1,1.42,1.73,1.62,2.35,1.2a3.35,3.35,0,0,1,2.68-3.15l.78.35c1,1-.27,3.43-.72,4.2h-.06l.1,1.42,1.4.38c1.85-.76,3.17-1.1,4,1.21a2.26,2.26,0,0,0,2.53-.24c-.07-.22-.13-.45-.22-.67l.75-.07a4.44,4.44,0,0,0,.32-.75,4.44,4.44,0,0,1-.32.75c.22,0,.45,0,.68,0l0-.05c5.74,1.24-2.87-7.17,2.24-7.35l.3.1c.89,1.76,3.9,1.35,2.64-.51L63.12,16c-.24-5,6.21-3.14,5.32,1.23-1.72,1.27-.94,3,1.17,2.68l.92.7L71.07,22l-.67,1c-1.41,1.16-5.81.57-2.67,3.18C69.87,28,71,24.05,72.06,29.47c.65,3.45-2.42,4.73-2.26,7.24a9.48,9.48,0,0,1,2.41,1.87c.64,1.35.31,3.84.29,5.35-.19-.27-3.8,11.35-2,11.63l0,0s1.43.27,2.5,3.62c0,2.62,1.12,8.37.06,10.48v61.44c-5.68,0-9.17,3.31-11.69,8.09h0c.08-3.85,2.11-6.26,4.16-9.24.82-1.2,3.75-4.19,1.86-5.45l-1.6.2c-4.51,4.83-8.72,2.41-13.82,5.16,2.71-4.38,9.14-4.71,12.53-8.47,4.12-4.56,4.92-10.13,5.31-16,.41-6.1-1.21-33.38-13-23.75M77,77.44c0-7,0-14,0-20.95,2.23,1.95,6,2.18,5.07,5.93-.92,3.55-3.84,3-1.68,7.37h0c2.9,2,3.79-.42,5.54-2.11,3.84-3.72,3.82-1.29,8.08,1-1.11,2.35-.39,5.69-3.66,6.21-2.81.45-5.91-4-7.85.52C81,79.1,84.34,79,86.2,80.18c4.51,3,2.31,3.4,1.55,8.07-1.27-.14-2.76.6-4,.33-3.7-.83-2.4-2.38-3.07-5.39-.47-2.16-1-4-3.69-3.91ZM90,140.51l-12.9-8.15V100.31l2.62,7.81c.84,2.5,1.56,7.93,3.33,9.93,2.62,2.94,10.45,1.31,14.42,1.31l-10.57,7.7-.47,1.37Zm46-69.15c-.28,8.1-9.19-2-11,4.45-1,3.67,2.35,3.38,4.42,4.49,4.36,2.35,1.5,4.16.94,7.93-3.62-.48-5.86,1.54-7.26-3-.69-2.24,1.42-6-3-6-3.82,0-2.53,3.08-3.07,5.23-1.33,5.31-2.86,3.25-7.18,3.73-.64-3.69-3.26-5.54.93-7.93,2.06-1.17,6-.89,4.29-4.89s-4.24-.93-6.78-.79c-4.17.23-3.16-2.78-4.73-5.95,2.55-1.3,3.86-4.55,6.93-2.64s1.68,5.47,6.52,3.85l.17-.13c1.93-3.85-.31-3.29-1.31-6.82-1.21-4.24,1.55-3.7,4.26-6.37h0c2.56,2.44,5.57,2.22,4.25,6.37-1.14,3.64-3.42,2.62-1.32,6.82,2.92,2,3.8-.37,5.54-2.12,3.77-3.79,3.88-1.19,8.07,1A7.23,7.23,0,0,0,136,71.36Zm1.89-30.25c0,2.79-9,2.23-10.16,2.12C122,42.71,117.5,41.87,112,44.46l-1.2-.07,0-.07c-7.93-3.72-16.53-.36-24.89-2l-.8-1.17V11.26l.5-1,1.1-.2a11.78,11.78,0,0,0,2.51.36V9.74q.32-.53.6-1.08l1.22,0c4.6,1.64,9-1.42,13.63-1.42l0,0A13.12,13.12,0,0,1,111.42,9c7-4.2,14.08,2.78,20.41-.39l1.23,0v0h0c.18.35.37.7.57,1v.7l.06,0a11.58,11.58,0,0,0,2.59-.38l1.08.2.5,1Z"/><path d="M104.64,9.7h0a12.49,12.49,0,0,0-4,.68A21,21,0,0,1,94,11.59a12.73,12.73,0,0,1-2.2-.2v0a1,1,0,0,1-.08.26V36.55a3.75,3.75,0,0,0,.5,0c1.84,0,5.1-.56,8.16-1a21.76,21.76,0,0,1,2.9-.2,12.14,12.14,0,0,1,6.9,1.77v-26l-1.07-.55A11.09,11.09,0,0,0,104.64,9.7Z"/><path d="M122.45,35.61c3.06.41,6.31,1,8.16,1l.5,0V11.7c0-.1-.08-.17-.08-.27v0a11,11,0,0,1-2.2.2,20.75,20.75,0,0,1-6.64-1.2,12.49,12.49,0,0,0-4-.68h0a10.33,10.33,0,0,0-5.5,1.48v26a12.32,12.32,0,0,1,6.9-1.78A23.58,23.58,0,0,1,122.45,35.61Z"/></g></g></svg>